<?xml version="1.0" encoding="utf-8"?>
<svg version="1.1" id="Layer_1" xmlns="http://www.w3.org/2000/svg" xmlns:xlink="http://www.w3.org/1999/xlink" x="0px" y="0px"
	 viewBox="0 0 199 62" style="enable-background:new 0 0 199 62;" xml:space="preserve">
<style type="text/css">
	.st0{fill:#FFFFFF;} /* Đã đổi từ đen sang trắng */
	.st1{fill:#020202;} /* Đã đổi từ trắng sang đen */
	.st2{fill:none;}
	.st3{fill:#EF1893;} /* Giữ nguyên màu hồng */
	.st4{fill:#1BC96E;} /* Giữ nguyên màu xanh lá cây */
	.st5{fill:none;stroke:#020202;stroke-miterlimit:10;} /* Đổi viền trắng sang đen */
</style>
<path class="st0" d="M198,0.2H1.1v59.9H198V0.2z"/>
<path class="st1" d="M199,62H0V0h199V62z M2.1,59.9h194.8V2.1H2.1V59.9z"/>
<g>
	<rect x="-3" y="0" class="st2" width="199" height="62"/>
	<path class="st1" d="M22,46.3h-3.6V22H22v2.6c0.6-0.9,1.3-1.6,2.2-2.2c0.9-0.6,2-0.8,3.2-0.8c1.2,0,2.5,0.2,3.6,0.7
		c1.1,0.5,2.1,1.1,2.9,2c0.8,0.8,1.5,1.8,2,2.9c0.5,1.1,0.7,2.3,0.7,3.6c0,1.2-0.2,2.5-0.7,3.6c-0.5,1.1-1.1,2.1-2,2.9
		c-0.8,0.8-1.8,1.5-2.9,2c-1.1,0.5-2.4,0.7-3.6,0.7c-1.2,0-2.3-0.3-3.2-0.8c-0.9-0.6-1.7-1.3-2.2-2.2L22,46.3z M27.4,25
		c-1,0-1.9,0.2-2.7,0.8c-0.8,0.5-1.4,1.2-1.8,2.1c-0.4,0.9-0.6,1.9-0.6,2.9c0,1,0.2,2,0.6,2.9c0.4,0.8,1,1.5,1.8,2.1
		c0.8,0.5,1.7,0.8,2.7,0.8c1,0,1.9-0.3,2.8-0.8c0.8-0.5,1.5-1.2,2-2.1c0.5-0.9,0.8-1.9,0.8-2.9c0-1-0.3-2-0.7-2.9
		c-0.5-0.8-1.2-1.6-2-2.1C29.4,25.3,28.4,25,27.4,25z"/>
	<path class="st1" d="M53.1,22h3.6v17.5h-3.7l-0.1-2.5c-0.5,0.9-1.2,1.6-2.1,2.2c-0.9,0.5-1.9,0.8-3.1,0.8c-1.2,0-2.5-0.2-3.6-0.7
		c-2.3-1-4-2.8-5-5c-0.5-1.1-0.7-2.4-0.7-3.6c0-1.2,0.2-2.4,0.7-3.5c0.5-1.1,1.1-2.1,1.9-2.9c0.8-0.8,1.8-1.5,2.9-2
		c1.1-0.5,2.3-0.7,3.5-0.7c1.2,0,2.3,0.3,3.4,0.9c1,0.6,1.8,1.3,2.4,2.2L53.1,22z M47.7,36.4c1,0,1.9-0.2,2.7-0.8
		c0.8-0.5,1.4-1.2,1.8-2.1c0.4-0.9,0.6-1.9,0.6-2.9c0-1-0.2-2-0.6-2.9c-0.4-0.8-1-1.5-1.8-2.1c-0.8-0.5-1.7-0.8-2.7-0.8
		c-1,0-2,0.3-2.8,0.8c-0.8,0.5-1.5,1.2-2,2.1c-0.5,0.9-0.7,1.9-0.7,2.9c0,1,0.3,2,0.8,2.9c0.5,0.8,1.2,1.5,2,2
		C45.8,36.2,46.7,36.4,47.7,36.4L47.7,36.4z"/>
	<path class="st1" d="M68,39.5h-3.6L58.5,22h3.6l4.1,12.3L70.4,22H74l4.1,12.3L82.3,22h3.6L80,39.5h-3.7l-4.1-12.4L68,39.5z"/>
	<path class="st1" d="M101.5,22h3.6v17.5h-3.7l-0.1-2.5c-0.5,0.9-1.2,1.6-2.1,2.2c-0.9,0.5-1.9,0.8-3.1,0.8c-1.2,0-2.5-0.2-3.6-0.7
		c-1.1-0.5-2.1-1.2-3-2c-0.9-0.9-1.5-1.9-2-3c-0.5-1.1-0.7-2.4-0.7-3.6c0-1.2,0.2-2.4,0.7-3.5c0.5-1.1,1.1-2.1,2-2.9
		c0.8-0.8,1.8-1.5,2.9-1.9c1.1-0.5,2.3-0.7,3.5-0.7c1.2,0,2.3,0.3,3.4,0.9c1,0.6,1.8,1.3,2.4,2.2L101.5,22z M96.1,36.4
		c1,0,1.9-0.2,2.7-0.8c0.8-0.5,1.4-1.2,1.8-2.1c0.4-0.9,0.6-1.9,0.6-2.9c0-1-0.2-2-0.6-2.9c-0.4-0.8-1-1.5-1.8-2.1
		C98,25.3,97,25,96.1,25c-1,0-1.9,0.3-2.8,0.8c-0.8,0.5-1.5,1.2-2,2.1c-0.5,0.9-0.7,1.9-0.7,2.9c0,1,0.2,2,0.8,2.9
		c0.5,0.8,1.2,1.5,2,2C94.2,36.2,95.1,36.4,96.1,36.4L96.1,36.4z"/>
	<path class="st1" d="M108.7,22h3.6v17.5h-3.6V22z"/>
	<path class="st1" d="M116.5,22h3.6v17.5h-3.6V22z"/>
	<path class="st3" d="M125.6,39.9c-0.3,0-0.5,0-0.7-0.1c-0.2-0.1-0.4-0.2-0.6-0.4c-0.2-0.2-0.3-0.4-0.4-0.6
		c-0.1-0.2-0.1-0.5-0.1-0.7c0-0.3,0-0.5,0.1-0.7c0.1-0.2,0.2-0.4,0.4-0.6c0.2-0.2,0.4-0.3,0.6-0.4c0.2-0.1,0.5-0.1,0.7-0.1
		c0.3,0,0.5,0,0.7,0.1c0.2,0.1,0.4,0.2,0.6,0.4c0.2,0.2,0.3,0.4,0.4,0.6c0.1,0.2,0.1,0.5,0.1,0.7c0,0.3,0,0.5-0.1,0.7
		c-0.1,0.2-0.2,0.4-0.4,0.6s-0.4,0.3-0.6,0.4C126.1,39.9,125.8,39.9,125.6,39.9L125.6,39.9z"/>
	<path class="st4" d="M110.5,19.5c-0.3,0-0.5,0-0.7-0.1c-0.2-0.1-0.4-0.2-0.6-0.4c-0.4-0.4-0.6-0.8-0.6-1.4c0-0.5,0.2-1,0.6-1.4
		c0.2-0.2,0.4-0.3,0.6-0.4c0.2-0.1,0.5-0.1,0.7-0.1c0.3,0,0.5,0,0.8,0.1c0.2,0.1,0.5,0.2,0.6,0.4c0.2,0.2,0.3,0.4,0.4,0.6
		c0.1,0.2,0.2,0.5,0.2,0.7c0,0.3-0.1,0.5-0.2,0.7c-0.1,0.2-0.2,0.4-0.4,0.6c-0.2,0.2-0.4,0.3-0.6,0.4
		C111,19.5,110.8,19.5,110.5,19.5L110.5,19.5z"/>
	<path class="st4" d="M118.6,19.5c-0.3,0-0.5,0-0.7-0.1c-0.2-0.1-0.4-0.2-0.6-0.4c-0.4-0.4-0.6-0.8-0.6-1.4c0-0.5,0.2-1,0.6-1.4
		c0.2-0.2,0.4-0.3,0.6-0.4s0.5-0.1,0.7-0.1c0.3,0,0.5,0,0.8,0.1c0.2,0.1,0.5,0.2,0.6,0.4c0.2,0.2,0.3,0.4,0.4,0.6
		c0.1,0.2,0.2,0.5,0.2,0.7c0,0.3-0.1,0.5-0.2,0.7c-0.1,0.2-0.2,0.4-0.4,0.6c-0.2,0.2-0.4,0.3-0.6,0.4
		C119.1,19.5,118.8,19.5,118.6,19.5L118.6,19.5z"/>
	<g>
		<path class="st1" d="M178.3,40.2h-4.5l0-13.9l-4.4,0l1.8-4.5h2.7l0-5.5h4.5l0,5.5h3.7v4.5h-3.7L178.3,40.2z M174.6,39.4h2.8l0-14
			h3.7v-2.8h-3.7l0-5.5h-2.8l0,5.5h-2.9l-1.1,2.8l4,0L174.6,39.4z"/>
		<path class="st1" d="M137.3,46.8h-4.9V21.9h4.8l0,1.5c0.6-0.5,1.3-0.9,2-1.2c0.9-0.4,1.9-0.6,2.9-0.6c1.6,0,3,0.4,4.2,1.2
			c1.2,0.8,2.2,1.9,2.9,3.3c0.7,1.4,1.1,3,1.1,4.7c0,1.8-0.4,3.3-1.1,4.7c-0.7,1.4-1.7,2.5-2.9,3.3c-1.2,0.8-2.6,1.2-4.2,1.2
			c-1,0-2.1-0.2-3-0.6c-0.7-0.3-1.3-0.7-1.9-1.1V46.8z M133.3,45.9h3.1v-9.7l1,1c0.6,0.6,1.3,1.1,2.2,1.4c0.8,0.4,1.7,0.5,2.7,0.5
			c1.4,0,2.6-0.4,3.7-1.1c1.1-0.7,2-1.7,2.6-2.9c0.6-1.2,1-2.7,1-4.3c0-1.6-0.3-3.1-1-4.3c-0.6-1.2-1.5-2.2-2.6-2.9
			c-1.1-0.7-2.3-1.1-3.8-1.1c-0.9,0-1.7,0.2-2.5,0.5c-0.8,0.3-1.4,0.7-2,1.3c-0.2,0.2-0.5,0.4-0.5,0.4l-0.8,0.8l0-2.7h-3V45.9z
			 M141.4,36.5c-1,0-1.9-0.3-2.7-0.7c-0.8-0.5-1.4-1.2-1.8-2c-0.4-0.9-0.7-1.8-0.7-2.9c0-1.1,0.2-2.1,0.7-2.9c0.4-0.9,1.1-1.5,1.8-2
			c0.8-0.5,1.7-0.7,2.7-0.7c1,0,1.9,0.3,2.7,0.7c0.8,0.5,1.4,1.2,1.8,2c0.4,0.8,0.6,1.8,0.6,2.9c0,1.1-0.2,2.1-0.6,2.9
			c-0.4,0.9-1,1.5-1.8,2C143.3,36.3,142.4,36.5,141.4,36.5z M141.4,26c-0.9,0-1.6,0.2-2.2,0.6c-0.6,0.4-1.1,1-1.5,1.7
			c-0.4,0.7-0.6,1.6-0.6,2.5c0,1,0.2,1.8,0.6,2.5c0.4,0.7,0.9,1.3,1.5,1.7c0.6,0.4,1.4,0.6,2.2,0.6c0.8,0,1.5-0.2,2.2-0.6
			c0.6-0.4,1.1-1,1.5-1.7c0.4-0.7,0.5-1.6,0.5-2.5c0-1-0.2-1.8-0.5-2.5c-0.3-0.7-0.8-1.3-1.5-1.7C143,26.2,142.3,26,141.4,26z"/>
		<path class="st1" d="M161.4,40.1c-1.8,0-3.5-0.4-4.9-1.2c-1.4-0.8-2.6-1.9-3.3-3.2c-0.8-1.4-1.2-2.9-1.2-4.7
			c0-1.4,0.2-2.7,0.7-3.8c0.4-1.1,1.1-2.1,1.9-3c0.8-0.8,1.8-1.5,2.9-2c2.1-0.9,4.8-1,7,0c1,0.5,1.9,1.1,2.6,1.8
			c0.7,0.8,1.3,1.7,1.7,2.8c0.4,1.1,0.6,2.2,0.6,3.5l0,1.8l-12.3,0.1c0.1,0.4,0.2,0.8,0.4,1.1c0.4,0.7,1,1.3,1.8,1.7
			c0.8,0.4,1.7,0.6,2.8,0.6c0.7,0,1.4-0.1,2-0.4c0.6-0.2,1.3-0.7,2-1.3l0.4-0.3l2.5,3.4l-0.3,0.3c-0.6,0.6-1.3,1-2.1,1.4
			c-0.8,0.4-1.6,0.7-2.4,0.9C163.1,39.9,162.2,40.1,161.4,40.1z M161,22.4c-1.2,0-2.3,0.2-3.3,0.6c-1,0.4-1.9,1-2.6,1.8
			c-0.7,0.8-1.3,1.7-1.7,2.7c-0.4,1-0.6,2.2-0.6,3.5c0,1.6,0.4,3,1.1,4.2c0.7,1.2,1.7,2.2,3,2.9c1.3,0.7,2.8,1.1,4.5,1.1
			c0.8,0,1.5-0.1,2.3-0.3c0.8-0.2,1.5-0.5,2.2-0.8c0.6-0.3,1.1-0.6,1.6-1l-1.4-2c-0.7,0.5-1.3,0.9-1.9,1.1c-0.7,0.3-1.5,0.4-2.3,0.4
			c-1.2,0-2.3-0.2-3.2-0.7c-0.9-0.5-1.6-1.2-2.1-2.1c-0.5-0.9-0.7-1.9-0.7-2.8l0,0c0-0.1,0-0.2,0-0.3c-0.1-1.1,0.1-2.2,0.6-3.1
			c0.5-0.9,1-1.5,1.8-1.9c0.8-0.4,1.7-0.7,2.9-0.7c0.8,0,1.5,0.2,2.1,0.5c0.6,0.3,1.2,0.8,1.6,1.3c0.4,0.5,0.6,1.2,0.7,2l0.1,0.7
			l-8.6-0.1l-0.1,0.3c-0.1,0.4-0.1,0.7-0.1,1.1l0.1,0.5l11.5,0l0-0.9c0-1.1-0.1-2.2-0.5-3.2c-0.4-1-0.9-1.8-1.5-2.5
			c-0.7-0.7-1.5-1.2-2.4-1.6C163,22.6,162,22.4,161,22.4z M156.9,28.5l7.5,0.1c-0.1-0.5-0.2-0.9-0.5-1.2c-0.3-0.4-0.7-0.8-1.2-1
			c-0.5-0.3-1.1-0.4-1.7-0.4c-1,0-1.8,0.2-2.4,0.6c-0.6,0.3-1.1,0.9-1.4,1.6C157.1,28.2,157,28.3,156.9,28.5z"/>
	</g>
	<path class="st5" d="M137.1,24"/>
</g>
</svg>